<svg xmlns="http://www.w3.org/2000/svg" data-name="Layer 1" width="869.99994" height="520.13854" viewBox="0 0 869.99994 520.13854" xmlns:xlink="http://www.w3.org/1999/xlink"><path d="M831.09242,704.18737c-11.13833-9.4118-17.90393-24.27967-16.12965-38.75366s12.76358-27.78,27.01831-30.85364,30.50415,5.43465,34.83378,19.3594c2.3828-26.84637,5.12854-54.81757,19.40179-77.67976,12.92407-20.70115,35.3088-35.51364,59.5688-38.16357s49.80265,7.35859,64.93272,26.50671,18.83461,46.98549,8.2379,68.96911c-7.80623,16.19456-22.188,28.24676-37.2566,38.05184a240.45181,240.45181,0,0,1-164.45376,35.97709Z" transform="translate(-165.00003 -189.93073)" fill="#f2f2f2"/><path d="M996.72788,546.00953a393.41394,393.41394,0,0,0-54.82622,54.44229,394.561,394.561,0,0,0-61.752,103.194c-1.112,2.72484,3.31272,3.911,4.4123,1.21642A392.34209,392.34209,0,0,1,999.96343,549.24507c2.28437-1.86015-.97-5.08035-3.23555-3.23554Z" transform="translate(-165.00003 -189.93073)" fill="#fff"/><path d="M445.06712,701.63014c15.2985-12.92712,24.591-33.34815,22.15408-53.22817s-17.53079-38.15588-37.10966-42.37749-41.89745,7.46449-47.8442,26.59014c-3.27278-36.87349-7.04406-75.29195-26.64837-106.69317-17.75122-28.433-48.49666-48.778-81.81777-52.41768s-68.40395,10.107-89.18511,36.407-25.86934,64.53459-11.31476,94.72909c10.72185,22.24324,30.47528,38.79693,51.17195,52.26422,66.02954,42.9653,147.93912,60.88443,225.8773,49.41454" transform="translate(-165.00003 -189.93073)" fill="#f2f2f2"/><path d="M217.56676,484.37281a540.35491,540.35491,0,0,1,75.30383,74.77651A548.0761,548.0761,0,0,1,352.25665,647.04a545.835,545.835,0,0,1,25.43041,53.8463c1.52726,3.74257-4.55,5.37169-6.06031,1.67075a536.35952,536.35952,0,0,0-49.009-92.727A539.73411,539.73411,0,0,0,256.889,528.63168a538.44066,538.44066,0,0,0-43.76626-39.81484c-3.13759-2.55492,1.33232-6.97788,4.444-4.444Z" transform="translate(-165.00003 -189.93073)" fill="#fff"/><path d="M789.5,708.93073h-365v-374.5c0-79.67773,64.82227-144.5,144.49976-144.5h76.00049c79.67749,0,144.49975,64.82227,144.49975,144.5Z" transform="translate(-165.00003 -189.93073)" fill="#f2f2f2"/><path d="M713.5,708.93073h-289v-374.5a143.38177,143.38177,0,0,1,27.59571-84.94434c.66381-.90478,1.32592-1.79785,2.00878-2.68115a144.46633,144.46633,0,0,1,30.75415-29.85058c.65967-.48,1.322-.95166,1.99415-1.42334a144.15958,144.15958,0,0,1,31.47216-16.459c.66089-.25049,1.33374-.50146,2.00659-.74219a144.01979,144.01979,0,0,1,31.1084-7.33593c.65772-.08985,1.333-.16016,2.0083-.23047a146.28769,146.28769,0,0,1,31.10547,0c.67334.07031,1.34864.14062,2.01416.23144a143.995,143.995,0,0,1,31.10034,7.335c.6731.24073,1.346.4917,2.00879.74268a143.79947,143.79947,0,0,1,31.10645,16.21582c.67163.46143,1.344.93311,2.00635,1.40478a145.987,145.987,0,0,1,18.38354,15.564,144.305,144.305,0,0,1,12.72437,14.55078c.68066.88037,1.34277,1.77344,2.00537,2.67676A143.38227,143.38227,0,0,1,713.5,334.43073Z" transform="translate(-165.00003 -189.93073)" fill="#ccc"/><circle cx="524.99994" cy="335.5" r="16" fill="#2563eb"/><polygon points="594.599 507.783 582.339 507.783 576.506 460.495 594.601 460.496 594.599 507.783" fill="#ffb8b8"/><path d="M573.58165,504.27982h23.64384a0,0,0,0,1,0,0v14.88687a0,0,0,0,1,0,0H558.69478a0,0,0,0,1,0,0v0A14.88688,14.88688,0,0,1,573.58165,504.27982Z" fill="#2f2e41"/><polygon points="655.599 507.783 643.339 507.783 637.506 460.495 655.601 460.496 655.599 507.783" fill="#ffb8b8"/><path d="M634.58165,504.27982h23.64384a0,0,0,0,1,0,0v14.88687a0,0,0,0,1,0,0H619.69478a0,0,0,0,1,0,0v0A14.88688,14.88688,0,0,1,634.58165,504.27982Z" fill="#2f2e41"/><path d="M698.09758,528.60035a10.74272,10.74272,0,0,1,2.07293-16.21659l-2.71117-45.35553,17.42632,1.50406.48331,46.173a10.80091,10.80091,0,0,1-17.27139,13.89808Z" transform="translate(-165.00003 -189.93073)" fill="#ffb8b8"/><path d="M814.17427,490.58057a10.74269,10.74269,0,0,1-3.84766-15.98347l10.82073-45.51012,17.66388,4.87021-13.64852,45.33762a10.80091,10.80091,0,0,1-10.98843,11.28576Z" transform="translate(-165.00003 -189.93073)" fill="#ffb8b8"/><circle cx="612.1058" cy="162.12254" r="24.56103" fill="#ffb8b8"/><path d="M814.17871,522.54937H740.13043V405.32346l-5.98275-35.89651,10.39133-10.39133,38.31417.59633c27.01816,4.98948,32.77178,20.30825,33.40591,35.81951l1.72217,69.20191,2.88811,52.88972-.01825.33769a28.24608,28.24608,0,0,1-28.22011,27.97125,28.03936,28.03936,0,0,1-28.44538-28.22Z" transform="translate(-165.00003 -189.93073)" fill="#ccc"/><path d="M706.59444,583.023a17.063,17.063,0,0,0,23.89831-3.73282l44.38748,13.20976,2.72552-27.01029-43.03471-12.80836a17.10237,17.10237,0,0,0-27.97660,30.34171Z" transform="translate(-165.00003 -189.93073)" fill="#ffb8b8"/><path d="M741.00589,350.78293l27.29373,2.66978,8.27758,10.85695,13.68932,32.42322,13.87991,93.93869a13.20639,13.20639,0,0,1-10.15135,14.84974h0a13.45814,13.45814,0,0,1-16.34885-8.87954L748.15969,395.46823Z" transform="translate(-165.00003 -189.93073)" fill="#ccc"/><path d="M824.42653,352.18095l-12.53776,3.93144-17.38984,30.29987-6.07319,84.05224,6.75621,90.24153a14.75399,14.75399,0,0,0,12.73869,13.604h0a14.42945,14.42945,0,0,0,16.17139-13.604l.73181-88.51485-3.35708-79.89319Z" transform="translate(-165.00003 -189.93073)" fill="#ccc"/><path d="M765.51259,329.36925a4.45733,4.45733,0,0,1-3.30076-1.46582,4.52735,4.52735,0,0,1-1.0686-3.68408c.2749-2.48,2.56933-4.36328,5.71289-4.68359a7.77862,7.77862,0,0,1,6.38623,2.73828c1.38574,1.7041,1.86328,3.94092,1.27246,5.96777-.57617,1.97607-2.24121,3.48389-4.43652,4.01953A7.53467,7.53467,0,0,1,765.51259,329.36925Z" transform="translate(-165.00003 -189.93073)" fill="#2f2e41"/><path d="M807.8393,326.18624c-1.29193-1.534-3.49716-2.02441-5.52924-1.46484-2.03199.55957-3.782,1.93945-5.70569,2.89453a14.21943,14.21943,0,0,1-7.30591,1.40039c-2.40088-.23828-4.826-.94043-6.67932-2.55078a9.57244,9.57244,0,0,1-3.00977-4.81055,11.52462,11.52462,0,0,1,1.20764-8.23046,18.28714,18.28714,0,0,1,6.26129-6.86817,28.13062,28.13062,0,0,1,16.91461-4.72949c4.47467.29395,8.88043,1.62207,13.2468,2.87695a4.19576,4.19576,0,0,1,2.55157,1.78711,4.33914,4.33914,0,0,1,.30029,3.29883,9.74286,9.74286,0,0,1-3.21045,4.89648,23.30477,23.30477,0,0,1-5.05542,3.30567c-1.84082.94141-3.66162,1.91016-5.39087,3.054a5.06838,5.06838,0,0,0-2.00781,2.31641c-.33447.92969-.05139,1.99121.69909,2.63672a4.39638,4.39638,0,0,0,2.83789.73047l5.68488-.39551a4.29175,4.29175,0,0,0,2.52-.66016,3.77085,3.77085,0,0,0,1.11182-2.05566Z" transform="translate(-165.00003 -189.93073)" fill="#2f2e41"/><path d="M1034,708.93073h-738a1,1,0,0,1,0-2h738a1,1,0,0,1,0,2Z" transform="translate(-165.00003 -189.93073)" fill="#3f3d56"/></svg>