<svg xmlns="http://www.w3.org/2000/svg" data-name="Layer 1" width="888.00012" height="710.68379" viewBox="0 0 888.00012 710.68379"><path d="M943.0001,804.65811H737.16074a6.50753,6.50753,0,0,1-6.5-6.5V115.5a6.50753,6.50753,0,0,1,6.5-6.5H943.0001a6.50753,6.50753,0,0,1,6.5,6.5v682.6581A6.50753,6.50753,0,0,1,943.0001,804.65811Z" transform="translate(-156 -94.65811)" fill="#e6e6e6"/><path d="M916.86653,154.04538H763.29421a7.00465,7.00465,0,0,0-7,7V750.618a7.00465,7.00465,0,0,0,7,7H916.86653a7.00465,7.00465,0,0,0,7-7V161.04538A7.00464,7.00464,0,0,0,916.86653,154.04538Z" transform="translate(-156 -94.65811)" fill="#fff"/><path d="M848.08037,215.163a88,88,0,1,0,88,88A88.09957,88.09957,0,0,0,848.08037,215.163Zm0,163a75,75,0,1,1,75-75A75.08482,75.08482,0,0,1,848.08037,378.163Z" transform="translate(-156 -94.65811)" fill="#2563eb"/><path d="M848.08037,282.5a20.66315,20.66315,0,0,0-12.95062,36.5831L821.78037,372.663h20l2-31.5c7.86462-.23108,14.3-7.09723,14.3-15.5A15.40306,15.40306,0,0,0,848.08037,282.5Z" transform="translate(-156 -94.65811)" fill="#2563eb"/><circle cx="253.44259" cy="488.4299" r="79.54724" fill="#2f2e41"/><path d="M445.5665,635.57913l-.1424-.36968c-.29962-.77723-7.38933-19.27128,2.98768-34.77558a19.8033,19.8033,0,0,1,14.41424-8.93416,10.95924,10.95924,0,0,1,9.98516,4.88732c6.54981,10.01439,1.86426,28.35493-1.86035,37.7593l-.251.6328Z" transform="translate(-156 -94.65811)" fill="#2f2e41"/><path d="M410.13244,642.02966a19.799,19.799,0,0,1-13.00938-11.87129c-3.42157-9.73882-1.14271-23.01908,6.78437-39.48348l.2508-.52129,26.70778,16.15768-.36965.46979c-.30469.38739-7.50079,9.64191-5.32353,18.45058a10.95568,10.95568,0,0,1-3.70264,11.21753,19.80422,19.80422,0,0,1-11.09227,5.54434C410.2942,642.02966,410.21332,642.02966,410.13244,642.02966Z" transform="translate(-156 -94.65811)" fill="#2f2e41"/><circle cx="254.87284" cy="440.42262" r="27.13799" fill="#ffb8b8"/><path d="M437.78726,558.94284c-.68359-.07471-16.88379-1.86035-24.29-14.87207-7.085-12.44727-2.07666-29.82227-2.03076-30.0039l.05957-.2373,31.14209,3.23877-.06006.43018c-.043.30664-1.07324,7.6084,2.51709,12.59082a10.95487,10.95487,0,0,1,.92822,11.9209,19.80165,19.80165,0,0,1-7.61377,9.94141,20.16655,20.16655,0,0,1-2.74707,1.4668Q438.10854,559.0166,437.78726,558.94284Z" transform="translate(-156 -94.65811)" fill="#2f2e41"/><circle cx="691.44259" cy="488.4299" r="79.54724" fill="#2f2e41"/><path d="M883.5665,635.57913l-.1424-.36968c-.29962-.77723-7.38933-19.27128,2.98768-34.77558a19.8033,19.8033,0,0,1,14.41424-8.93416,10.95924,10.95924,0,0,1,9.98516,4.88732c6.54981,10.01439,1.86426,28.35493-1.86035,37.7593l-.251.6328Z" transform="translate(-156 -94.65811)" fill="#2f2e41"/><path d="M848.13244,642.02966a19.799,19.799,0,0,1-13.00938-11.87129c-3.42157-9.73882-1.14271-23.01908,6.78437-39.48348l.2508-.52129,26.70778,16.15768-.36965.46979c-.30469.38739-7.50079,9.64191-5.32353,18.45058a10.95568,10.95568,0,0,1-3.70264,11.21753,19.80422,19.80422,0,0,1-11.09227,5.54434C848.2942,642.02966,848.21332,642.02966,848.13244,642.02966Z" transform="translate(-156 -94.65811)" fill="#2f2e41"/><circle cx="692.87284" cy="440.42262" r="27.13799" fill="#ffb8b8"/><path d="M875.78726,558.94284c-.68359-.07471-16.88379-1.86035-24.29-14.87207-7.085-12.44727-2.07666-29.82227-2.03076-30.0039l.05957-.2373,31.14209,3.23877-.06006.43018c-.043.30664-1.07324,7.6084,2.51709,12.59082a10.95487,10.95487,0,0,1,.92822,11.9209,19.80165,19.80165,0,0,1-7.61377,9.94141,20.16655,20.16655,0,0,1-2.74707,1.4668Q876.10854,559.0166,875.78726,558.94284Z" transform="translate(-156 -94.65811)" fill="#2f2e41"/><path d="M560.08037,804.43189h-192a1,1,0,1,1,0-2h192a1,1,0,0,1,0,2Z" transform="translate(-156 -94.65811)" fill="#ccc"/><polygon points="417.88 697.174 430.14 697.173 435.979 649.885 417.878 649.886 417.88 697.174" fill="#ffb8b8"/><path d="M570.93007,788.23633l24.1438-.001h.001a15.38605,15.38605,0,0,1,15.38648,15.38623v.5l-39.53052.00146Z" transform="translate(-156 -94.65811)" fill="#2f2e41"/><polygon points="338.88 697.174 351.14 697.173 356.979 649.885 338.878 649.886 338.88 697.174" fill="#ffb8b8"/><path d="M491.93007,788.23633l24.1438-.001h.001a15.38605,15.38605,0,0,1,15.38648,15.38623v.5l-39.53052.00146Z" transform="translate(-156 -94.65811)" fill="#2f2e41"/><path d="M488.80005,607.82812l3-47,40-31,56,32,2,49s49,71,30,140c0,0,13,51,8,61-3.14844,6.29688,2,19,2,19h-29s-7-12-4-21,8-41,8-41l-14-62-14,69s5,45,2,53-1,20-1,20h-28s-3-15,0-24,7-41,7-41l-21-113Z" transform="translate(-156 -94.65811)" fill="#2f2e41"/><circle cx="396.08037" cy="368.32812" r="24.56103" fill="#ffb8b8"/><path d="M545.80005,490.82812l-6,10s-30,5-33,8,0,52,0,52l11,40,56-1,9.81982-50.59009s-1.81982-38.40991-4.81982-41.40991-13-13-13-13l-4-15Z" transform="translate(-156 -94.65811)" fill="#e6e6e6"/><path d="M595.2998,568.94876a10.05581,10.05581,0,0,1-3.1958-15.30334l-13.5874-42.93764,18.4209-.11981,9.81982,40.59009a10.11027,10.11027,0,0,1-11.4577,17.77069Z" transform="translate(-156 -94.65811)" fill="#ffb8b8"/><path d="M583.80005,549.82812l-16-58-1-29.79657s17.201-13.20343,28.60049-7.20343,12,9,12,9l8,38-12,51Z" transform="translate(-156 -94.65811)" fill="#e6e6e6"/><path d="M500.61487,567.95368a10.0558,10.0558,0,0,1,3.791-15.13652l15.69861-42.292-18.32019-1.94135-11.62695,40.041a10.11027,10.11027,0,0,1,10.45748,19.32891Z" transform="translate(-156 -94.65811)" fill="#ffb8b8"/><path d="M508.80005,548.82812l18-57,3-29.79657s-17.201-13.20343-28.6005-7.20343-12,9-12,9l-10,37,10,52Z" transform="translate(-156 -94.65811)" fill="#e6e6e6"/><path d="M528.63916,475.36011c4.251,1.83929,8.96217-.42255,12.65674-3.41729s6.95069-6.79871,11.21069-9.05814,10.03345-2.7633,13.27465,1.10286c2.36235,2.81629,2.41621,6.917,1.69434,10.5286s-2.12184,7.08357-2.84387,10.69525,-.56226,7.68142,2.15552,10.01753c2.52918,2.17439,6.33621,2.179,9.6944,2.11534l14.34424-.27116,3.10211-.05885a13.39069,13.39069,0,0,0,8.90088-4.02527c2.38257-2.40851,3.53235-5.77382,4.53809-9.03255l5.5528-17.99243a29.95459,29.95459,0,0,0-6.62573-31.04528c-4.25116-4.41418-9.73694-7.55878-15.437-9.53865a72.40031,72.40031,0,0,0-36.47217-3.19043,42.85966,42.85966,0,0,0-10.52026,2.90939c-6.76319,2.82025-12.27558,8.23382-15.48706,14.7016s-4.36255,14.05518-2.75269,21.14753" transform="translate(-156 -94.65811)" fill="#2f2e41"/></svg>