<svg xmlns="http://www.w3.org/2000/svg" data-name="Layer 1" width="869.99994" height="520.13854" viewBox="0 0 869.99994 520.13854"><path d="M831.09242,704.18737c-11.13833-9.4118-17.90393-24.27967-16.12965-38.75366s12.76358-27.78,27.01831-30.85364,30.50415,5.43465,34.83378,19.3594c2.3828-26.84637,5.12854-54.81757,19.40179-77.67976,12.92407-20.70115,35.3088-35.51364,59.5688-38.16357s49.80265,7.35859,64.93272,26.50671,18.83461,46.98549,8.2379,68.96911c-7.80623,16.19456-22.188,28.24676-37.2566,38.05184a240.45181,240.45181,0,0,1-164.45376,35.97709Z" transform="translate(-165.00003 -189.93073)" fill="#f2f2f2"/><path d="M996.72788,546.00953a393.41394,393.41394,0,0,0-54.82622,54.44229,394.561,394.561,0,0,0-61.752,103.194c-1.112,2.72484,3.31272,3.911,4.4123,1.21642A392.34209,392.34209,0,0,1,999.96343,549.24507c2.28437-1.86015-.97-5.08035-3.23555-3.23554Z" transform="translate(-165.00003 -189.93073)" fill="#fff"/><ellipse cx="554.00011" cy="477.56892" rx="128.5" ry="42.56962" fill="#2563eb"/><path d="M705.86881,625.94132c3.51111-7.79654,15.92341-9.26834,26.37889-10.23989,23.86185-2.21625,44.17313-20.49293,47.40274-44.28714s-10.40046-48.148-32.55149-58.16929a59.94667,59.94667,0,0,0-22.82717-4.81808c-17.24677-.43015-35.54952,3.6435-47.63662,14.99084-9.16134,8.60326-14.14944,20.8135-16.32725,33.03958s-1.68664,24.67535-2.18621,37.04393l-.65758,16.30644c-.32851,8.14854-.62864,16.50515,1.49177,24.41313a42.56545,42.56545,0,0,0,5.40637,11.43422c5.72933,8.74035,16.01972,13.94255,26.58016,14.87922a49.24979,49.24979,0,0,0,24.37693-4.46435" transform="translate(-165.00003 -189.93073)" fill="#2f2e41"/><polygon points="540.001 504.889 533.251 498.139 526.501 504.889 519.751 498.139 513.001 504.889 506.251 498.139 499.501 504.889 492.751 498.139 486.001 504.889 479.251 498.139 472.501 504.889 465.751 498.139 459.001 504.889 452.251 498.139 445.501 504.889 445.501 520.139 552.501 520.139 552.501 504.889 545.751 498.139 540.001 504.889" fill="#2f2e41"/><rect x="502.13878" y="283.43112" width="19.86225" height="90.77173" fill="#2f2e41"/><ellipse cx="512.07991" cy="283.43112" rx="12.41389" ry="4.96556" fill="#2f2e41"/><path d="M690.14148,435.30958c0,10.18758-5.55618,18.44969-12.41389,18.44969" transform="translate(-165.00003 -189.93073)" fill="#2f2e41"/><path d="M665.31371,453.75927c-6.85771,0-12.41389-8.26211-12.41389-18.44969" transform="translate(-165.00003 -189.93073)" fill="none" stroke="#2f2e41" stroke-miterlimit="10"/><path d="M690.14148,435.30958c0,10.18758-5.55618,18.44969-12.41389,18.44969" transform="translate(-165.00003 -189.93073)" fill="none" stroke="#2f2e41" stroke-miterlimit="10"/><path d="M675.00386,415.90658a39.77036,39.77036,0,0,1,11.978,6.88012,21.48886,21.48886,0,0,1,7.154,12.523" transform="translate(-165.00003 -189.93073)" fill="none" stroke="#2f2e41" stroke-miterlimit="10"/><ellipse cx="512.07991" cy="420.13827" rx="12.41389" ry="4.96556" fill="#2f2e41"/><path d="M459.50003,708.93073h-229a1,1,0,0,1,0-2h229a1,1,0,0,1,0,2Z" transform="translate(-165.00003 -189.93073)" fill="#ccc"/></svg>