<svg xmlns="http://www.w3.org/2000/svg" data-name="Layer 1" width="873.93277" height="623.50467" viewBox="0 0 873.93277 623.50467" xmlns:xlink="http://www.w3.org/1999/xlink"><path d="M869.52589,421.72058c0,54.832-33.49493,73.7931-74.82866,73.7931q-1.40673,0-2.80348-.05c-1.86328-.03-3.70654-.12-5.52979-.24-15.23145-1.16-29.05469-5.95-38.91211-17.52-9.23535-10.83-14.47559-26.08-14.28711-47.14.70313-79.26,74.07715-109.09,122.07617-99.37,1.209.24,2.39795.52,3.56689.8C886.84521,340.56054,869.52589,381.24056,869.52589,421.72058Z" transform="translate(-163.03362 -138.24767)" fill="#f0f0f0"/><path d="M794.69423,494.21386c-1.86328-.03-3.70654-.12-5.52979-.24l6.02344-93.62Z" transform="translate(-163.03362 -138.24767)" opacity="0.2"/><path d="M871.96729,331.95056a105.91024,105.91024,0,0,0-13.44629-1.39c-1.209.24-2.39795.52-3.56689.8.6709.29,1.334.59,1.99707.9A110.04047,110.04047,0,0,1,871.96729,331.95056Z" transform="translate(-163.03362 -138.24767)" opacity="0.2"/><path d="M619.52589,504.72058c0,54.832-33.49493,73.7931-74.82866,73.7931q-1.40673,0-2.80348-.05c-1.86328-.03-3.70654-.12-5.52979-.24-15.23145-1.16-29.05469-5.95-38.91211-17.52-9.23535-10.83-14.47559-26.08-14.28711-47.14.70313-79.26,74.07715-109.09,122.07617-99.37,1.209.24,2.39795.52,3.56689.8C636.84521,423.56054,619.52589,464.24056,619.52589,504.72058Z" transform="translate(-163.03362 -138.24767)" fill="#f0f0f0"/><path d="M544.69423,577.21386c-1.86328-.03-3.70654-.12-5.52979-.24l6.02344-93.62Z" transform="translate(-163.03362 -138.24767)" opacity="0.2"/><path d="M621.96729,414.95056a105.91024,105.91024,0,0,0-13.44629-1.39c-1.209.24-2.39795.52-3.56689.8.6709.29,1.334.59,1.99707.9A110.04047,110.04047,0,0,1,621.96729,414.95056Z" transform="translate(-163.03362 -138.24767)" opacity="0.2"/><circle cx="391.99227" cy="284.47291" r="66" fill="#2563eb"/><path d="M543.52589,433.72058a10.74264,10.74264,0,0,1,3.84131-16.01l-12.147-79.74,23.85742,1.07007,7.27393,75.43a10.80091,10.80091,0,0,1-22.82471,19.25Z" transform="translate(-163.03362 -138.24767)" fill="#ffb8b8"/><polygon points="330.993 610.505 318.733 610.504 312.916 563.216 330.995 563.217 330.993 610.505" fill="#ffb8b8"/><path d="M496.74011,760.78027l-39.53076-.00146v-.5a15.38728,15.38728,0,0,1,15.38647-15.38623h.001l24.144.001Z" transform="translate(-163.03362 -138.24767)" fill="#2f2e41"/><polygon points="378.993 598.505 367.596 603.682 349.439 561.074 366.31 553.541 378.993 598.505" fill="#ffb8b8"/><path d="M543.86219,747.91425l-37.30593,14.53051-.17676-.45361a15.38729,15.38729,0,0,1,8.6662-20.01709l.00093-.00036,22.78082-8.87695Z" transform="translate(-163.03362 -138.24767)" fill="#2f2e41"/><path d="M462.52589,734.72058l-15-51-13-94s65-23,77-11l2,98-6,56Z" transform="translate(-163.03362 -138.24767)" fill="#2f2e41"/><circle cx="337.99227" cy="173.47291" r="24.56103" fill="#ffb8b8"/><path d="M486.52589,329.72058l-3-15,7-19,23-5,17,8v17l-1,9-6,10Z" transform="translate(-163.03362 -138.24767)" fill="#ffb8b8"/><path d="M544.52589,359.72058l-35,6-13,17-14,102,18,158,25-3-2-133,16-97,34,101-6,127,25,2,17-144-8-104-9-13Z" transform="translate(-163.03362 -138.24767)" fill="#2f2e41"/><path d="M551.52589,373.72058l16-11,12,11,8,88-28,15-5-11Z" transform="translate(-163.03362 -138.24767)" fill="#cbcbcb"/><path d="M480.52589,376.72058l-18-8-6,8-5,91,28,11,4-10Z" transform="translate(-163.03362 -138.24767)" fill="#cbcbcb"/><path d="M514.819,316.94341a73.04115,73.04115,0,0,0,31.10938-5.36817c-2.19922-.335-4.56543-.69141-6.999-1.03125a61.01835,61.01835,0,0,0,11.02832-11.87011c-4.80371.251-9.75586.41992-14.53027.292a60.84837,60.84837,0,0,0,18.43848-23.31543,95.47675,95.47675,0,0,1-25.93555,9.54A60.88377,60.88377,0,0,0,481.84521,312.721a170.28659,170.28659,0,0,1-54.00879-30.208,61.01044,61.01044,0,0,0,16.75586,56.78027c-3.91992-.16406-7.77637-.90039-11.44434-2.17285.04395.25.08789.501.13281.751a60.9432,60.9432,0,0,0,42.81543,51.10351,60.16618,60.16618,0,0,1-12.97754,1.29395,59.68392,59.68392,0,0,1-11.418-1.08984,60.90852,60.90852,0,0,0,56.76953,42.33008,122.11068,122.11068,0,0,1-68.5127,21.44531c-3.20019,0-6.39941-.14649-9.57812-.4541A170.62712,170.62712,0,0,0,514.819,316.94341Z" transform="translate(-163.03362 -138.24767)" fill="#2f2e41"/><path d="M578.06838,373.43759a10.52591,10.52591,0,0,1-.2393,1.64013l-42.98535,70.8418-21.23536-8.59571,40.22448-66.88086a10.4971,10.4971,0,1,1,24.23553,2.99464Z" transform="translate(-163.03362 -138.24767)" fill="#ffb8b8"/><path d="M551.52589,387.72058l-13,8-26,56,20,15,28-54,6-20Z" transform="translate(-163.03362 -138.24767)" fill="#cbcbcb"/><path d="M1036.46638,761.75233h-381a1,1,0,0,1,0-2h381a1,1,0,0,1,0,2Z" transform="translate(-163.03362 -138.24767)" fill="#cbcbcb"/><path d="M862.52589,421.72058c0,54.832-33.49493,73.7931-74.82866,73.7931q-1.40673,0-2.80348-.05c-1.86328-.03-3.70654-.12-5.52979-.24-15.23145-1.16-29.05469-5.95-38.91211-17.52-9.23535-10.83-14.47559-26.08-14.28711-47.14.70313-79.26,74.07715-109.09,122.07617-99.37,1.209.24,2.39795.52,3.56689.8C879.84521,340.56054,862.52589,381.24056,862.52589,421.72058Z" transform="translate(-163.03362 -138.24767)" fill="#2563eb"/><path d="M787.69423,494.21386c-1.86328-.03-3.70654-.12-5.52979-.24l6.02344-93.62Z" transform="translate(-163.03362 -138.24767)" opacity="0.2"/><ellipse cx="618.49227" cy="265.47291" rx="6" ry="10" fill="#3f3d56"/><ellipse cx="670.49227" cy="265.47291" rx="6" ry="10" fill="#3f3d56"/><path d="M808.02589,413.72058s-4-29-34-22-26,28-26,28,28-13,32-4,23,7,23,7Z" transform="translate(-163.03362 -138.24767)" fill="#3f3d56"/><path d="M864.96729,331.95056a105.91024,105.91024,0,0,0-13.44629-1.39c-1.209.24-2.39795.52-3.56689.8.6709.29,1.334.59,1.99707.9A110.04047,110.04047,0,0,1,864.96729,331.95056Z" transform="translate(-163.03362 -138.24767)" opacity="0.2"/><path d="M612.52589,504.72058c0,54.832-33.49493,73.7931-74.82866,73.7931q-1.40673,0-2.80348-.05c-1.86328-.03-3.70654-.12-5.52979-.24-15.23145-1.16-29.05469-5.95-38.91211-17.52-9.23535-10.83-14.47559-26.08-14.28711-47.14.70313-79.26,74.07715-109.09,122.07617-99.37,1.209.24,2.39795.52,3.56689.8C629.84521,423.56054,612.52589,464.24056,612.52589,504.72058Z" transform="translate(-163.03362 -138.24767)" fill="#2563eb"/><path d="M537.69423,577.21386c-1.86328-.03-3.70654-.12-5.52979-.24l6.02344-93.62Z" transform="translate(-163.03362 -138.24767)" opacity="0.2"/><ellipse cx="368.49227" cy="348.47291" rx="6" ry="10" fill="#3f3d56"/><ellipse cx="420.49227" cy="348.47291" rx="6" ry="10" fill="#3f3d56"/><path d="M558.02589,496.72058s-4-29-34-22-26,28-26,28,28-13,32-4,23,7,23,7Z" transform="translate(-163.03362 -138.24767)" fill="#3f3d56"/><path d="M614.96729,414.95056a105.91024,105.91024,0,0,0-13.44629-1.39c-1.209.24-2.39795.52-3.56689.8.6709.29,1.334.59,1.99707.9A110.04047,110.04047,0,0,1,614.96729,414.95056Z" transform="translate(-163.03362 -138.24767)" opacity="0.2"/><path d="M873.46638,761.75233h-170a1,1,0,0,1,0-2h170a1,1,0,0,1,0,2Z" transform="translate(-163.03362 -138.24767)" fill="#cbcbcb"/><path d="M623.46638,761.75233h-170a1,1,0,0,1,0-2h170a1,1,0,0,1,0,2Z" transform="translate(-163.03362 -138.24767)" fill="#cbcbcb"/><path d="M346.87393,761.75233H163.46638a.99991.99991,0,0,1,0-1.99982H346.87393a.99991.99991,0,1,1,0,1.99982Z" transform="translate(-163.03362 -138.24767)" fill="#cbcbcb"/><path d="M255.03362,324.24767c0,56.41806-31.74779,75.93379-70.9126,75.93379q-1.33269,0-2.65722-.05151c-1.76587-.03092-3.51232-.12372-5.24028-.24742-14.43457-1.19383-27.52752-6.12623-36.85714-18.03883-8.75238-11.14866-13.71093-26.83885-13.53072-48.494.66626-81.57764,70.17443-112.29009,115.67621-102.296,1.14551.247,2.27169.53551,3.37864.82407C273.58521,240.53467,255.03362,282.77558,255.03362,324.24767Z" transform="translate(-163.03362 -138.24767)" fill="#2563eb"/><path d="M184.1214,398.93995c-1.76587-.03092-3.51232-.12372-5.24028-.24742l5.70776-96.35938Z" transform="translate(-163.03362 -138.24767)" opacity="0.2"/><ellipse cx="14.96638" cy="167.99767" rx="6" ry="10" fill="#3f3d56"/><ellipse cx="66.96638" cy="167.99767" rx="6" ry="10" fill="#3f3d56"/><path d="M204.52589,315.72058s-4-29-34-22-26,28-26,28,28-13,32-4,23,7,23,7Z" transform="translate(-163.03362 -138.24767)" fill="#3f3d56"/><path d="M276.43057,230.81174a106.49479,106.49479,0,0,0-13.06018-1.54181c-1.14551.247-2.27169.53551-3.37864.82407.63553.29839,1.26358.60729,1.89161.91614A110.4807,110.4807,0,0,1,276.43057,230.81174Z" transform="translate(-163.03362 -138.24767)" opacity="0.2"/></svg>